<svg width="121" height="49" viewBox="0 0 121 49" fill="none" xmlns="http://www.w3.org/2000/svg">
<g clip-path="url(#clip0_2_2401)">
<path d="M15.6763 10.6111C7.14755 10.6111 0.0405273 14.2294 0.0405273 25.1458C0.0405273 33.7939 4.81949 39.24 15.8966 39.24C28.9348 39.24 29.7706 30.6513 29.7706 30.6513H23.4529C23.4529 30.6513 22.0984 35.276 15.5112 35.276C10.146 35.276 6.28725 31.6517 6.28725 26.5717H30.4312V23.384C30.4312 18.3583 27.2408 10.6111 15.6763 10.6111ZM15.4561 14.6852C20.5631 14.6852 24.0448 17.8139 24.0448 22.5031H6.42698C6.42698 17.5249 10.9714 14.6852 15.4561 14.6852Z" fill="#E53238"/>
<path d="M30.4266 0.0402832V33.7577C30.4266 35.6717 30.29 38.359 30.29 38.359H36.3157C36.3157 38.359 36.532 36.4289 36.532 34.665C36.532 34.665 39.5091 39.3225 47.604 39.3225C56.1283 39.3225 61.9185 33.4044 61.9185 24.9254C61.9185 17.0376 56.6 10.6936 47.6178 10.6936C39.2066 10.6936 36.5929 15.2356 36.5929 15.2356V0.0402832H30.4266ZM46.0624 14.864C51.8511 14.864 55.532 19.1602 55.532 24.9254C55.532 31.1076 51.2807 35.152 46.1037 35.152C39.9255 35.152 36.5929 30.3281 36.5929 24.9805C36.5929 19.9976 39.5834 14.864 46.0624 14.864Z" fill="#0064D2"/>
<path d="M76.8936 10.6111C64.0627 10.6111 63.2398 17.6367 63.2398 18.7593H69.6263C69.6263 18.7593 69.9612 14.6577 76.4532 14.6577C80.6718 14.6577 83.9408 16.5886 83.9408 20.3009V21.6222H76.4532C66.5129 21.6222 61.2578 24.5301 61.2578 30.4311C61.2578 36.2385 66.1133 39.3983 72.675 39.3983C81.6175 39.3983 84.4982 34.4571 84.4982 34.4571C84.4982 36.4224 84.6497 38.3591 84.6497 38.3591H90.3272C90.3272 38.3591 90.107 35.9585 90.107 34.4226V21.1474C90.107 12.4429 83.0859 10.6111 76.8936 10.6111ZM83.9408 25.5862V27.348C83.9408 29.6458 82.5228 35.3586 74.1752 35.3586C69.6041 35.3586 67.6443 33.0773 67.6443 30.4311C67.6443 25.6172 74.2443 25.5862 83.9408 25.5862Z" fill="#F5AF02"/>
<path d="M86.668 11.7134H93.8527L104.164 32.371L114.451 11.7134H120.96L102.221 48.4905H95.3943L100.802 38.2384L86.668 11.7134Z" fill="#86B817"/>
</g>
<defs>
<clipPath id="clip0_2_2401">
<rect width="121" height="48.5307" fill="white"/>
</clipPath>
</defs>
</svg>
