<svg width="26" height="24" viewBox="0 0 26 24" fill="none" xmlns="http://www.w3.org/2000/svg">
<path d="M11.1632 1.26548C11.8574 -0.346446 14.1428 -0.346442 14.837 1.26549L16.8565 5.95491C17.146 6.62726 17.7798 7.0877 18.5087 7.15531L23.5927 7.62683C25.3402 7.78891 26.0465 9.96253 24.7279 11.1208L20.8921 14.4906C20.3421 14.9737 20.1 15.7187 20.261 16.4329L21.3836 21.4137C21.7694 23.1258 19.9205 24.4692 18.4114 23.5731L14.0212 20.9663C13.3918 20.5926 12.6084 20.5926 11.979 20.9663L7.58883 23.5731C6.07977 24.4692 4.23077 23.1258 4.61664 21.4137L5.73923 16.4329C5.90018 15.7187 5.65811 14.9737 5.10814 14.4906L1.27228 11.1208C-0.0462415 9.96253 0.660014 7.78891 2.40756 7.62683L7.49152 7.15531C8.22044 7.0877 8.85418 6.62726 9.14372 5.95491L11.1632 1.26548Z" fill="#C4C4C4"/>
</svg>
