<svg width="28" height="30" viewBox="0 0 28 30" fill="none" xmlns="http://www.w3.org/2000/svg">
<path fill-rule="evenodd" clip-rule="evenodd" d="M4.95051 8.481C5.72844 8.15798 6.56249 7.9917 7.40482 7.9917C8.24715 7.9917 9.08119 8.15798 9.85912 8.481C10.6371 8.80402 11.3436 9.27743 11.9382 9.87408L11.9415 9.87742L11.9998 9.93653L12.0582 9.87743L12.0615 9.87408C12.6561 9.27743 13.3626 8.80402 14.1405 8.481C14.9184 8.15798 15.7525 7.9917 16.5948 7.9917C17.4371 7.9917 18.2712 8.15798 19.0491 8.481C19.8268 8.80391 20.5331 9.2771 21.1275 9.87346C23.6726 12.4192 23.7291 16.6283 20.7135 19.7005L20.707 19.7071L12.7069 27.7071C12.5194 27.8946 12.265 28 11.9998 28C11.7346 28 11.4802 27.8946 11.2927 27.7071L3.28615 19.7005C0.270454 16.6283 0.327075 12.4191 2.8721 9.87346C3.46656 9.2771 4.17285 8.80391 4.95051 8.481ZM7.40482 9.9917C6.82572 9.9917 6.25231 10.106 5.71748 10.3281C5.18266 10.5502 4.69693 10.8756 4.28815 11.2858L4.28693 11.2871C2.59331 12.9807 2.38957 15.9292 4.71033 18.2963L11.9998 25.5857L19.2893 18.2963C21.6101 15.9292 21.4063 12.9807 19.7127 11.2871L19.7115 11.2858C19.3027 10.8756 18.817 10.5502 18.2822 10.3281C17.7473 10.106 17.1739 9.9917 16.5948 9.9917C16.0157 9.9917 15.4423 10.106 14.9075 10.3281C14.3734 10.5499 13.8882 10.8748 13.4798 11.2842C13.4792 11.2848 13.4787 11.2853 13.4782 11.2858L12.7115 12.0625C12.5236 12.2528 12.2673 12.36 11.9998 12.36C11.7324 12.36 11.4761 12.2528 11.2882 12.0625L10.5215 11.2858C10.5209 11.2853 10.5204 11.2848 10.5199 11.2842C10.1114 10.8748 9.62628 10.5499 9.09215 10.3281C8.55733 10.106 7.98392 9.9917 7.40482 9.9917Z" fill="#2F294D"/>
<circle cx="19.5" cy="8.5" r="7.5" fill="#0064D2" stroke="white" stroke-width="2"/>
<path d="M20.125 12C20.0003 12 19.894 11.956 19.806 11.868C19.7253 11.78 19.685 11.6737 19.685 11.549V5.532L19.861 5.598L17.232 9.03L17.188 8.898H21.302C21.4193 8.898 21.5183 8.93833 21.599 9.019C21.6797 9.09967 21.72 9.19867 21.72 9.316C21.72 9.426 21.6797 9.52133 21.599 9.602C21.5183 9.67533 21.4193 9.712 21.302 9.712H16.583C16.473 9.712 16.3703 9.668 16.275 9.58C16.187 9.492 16.143 9.38933 16.143 9.272C16.143 9.162 16.1797 9.06667 16.253 8.986L19.762 4.476C19.8133 4.41 19.872 4.366 19.938 4.344C20.004 4.31467 20.07 4.3 20.136 4.3C20.2607 4.3 20.3633 4.344 20.444 4.432C20.5247 4.51267 20.565 4.61533 20.565 4.74V11.549C20.565 11.6737 20.521 11.78 20.433 11.868C20.3523 11.956 20.2497 12 20.125 12Z" fill="white"/>
</svg>
